<svg width="375" height="638" viewBox="0 0 375 638" fill="none" xmlns="http://www.w3.org/2000/svg">
<g clip-path="url(#clip0_1_1947)">
<rect width="375" height="638" fill="#F7F8F9"/>
<path d="M117.445 609V597.578H119.867V609H117.445ZM133.891 609L133.219 605.945C133.182 605.763 133.122 605.495 133.039 605.141C132.956 604.781 132.865 604.398 132.766 603.992C132.672 603.581 132.583 603.201 132.5 602.852C132.422 602.503 132.365 602.247 132.328 602.086H132.258C132.221 602.247 132.164 602.503 132.086 602.852C132.008 603.201 131.919 603.581 131.82 603.992C131.727 604.404 131.638 604.792 131.555 605.156C131.471 605.516 131.409 605.789 131.367 605.977L130.664 609H128.102L125.617 600.266H127.992L129 604.133C129.068 604.404 129.133 604.727 129.195 605.102C129.258 605.471 129.312 605.831 129.359 606.18C129.411 606.523 129.451 606.797 129.477 607H129.539C129.549 606.849 129.57 606.648 129.602 606.398C129.638 606.148 129.677 605.891 129.719 605.625C129.766 605.354 129.807 605.112 129.844 604.898C129.885 604.68 129.917 604.531 129.938 604.453L131.016 600.266H133.641L134.664 604.453C134.701 604.604 134.747 604.844 134.805 605.172C134.867 605.5 134.922 605.839 134.969 606.188C135.016 606.531 135.042 606.802 135.047 607H135.109C135.13 606.823 135.167 606.56 135.219 606.211C135.271 605.862 135.331 605.497 135.398 605.117C135.471 604.732 135.544 604.404 135.617 604.133L136.664 600.266H139L136.484 609H133.891ZM143.992 600.086C145.164 600.086 146.062 600.341 146.688 600.852C147.312 601.362 147.625 602.138 147.625 603.18V609H145.961L145.5 607.812H145.438C145.188 608.125 144.932 608.38 144.672 608.578C144.411 608.776 144.112 608.922 143.773 609.016C143.435 609.109 143.023 609.156 142.539 609.156C142.023 609.156 141.56 609.057 141.148 608.859C140.742 608.661 140.422 608.359 140.188 607.953C139.953 607.542 139.836 607.021 139.836 606.391C139.836 605.464 140.161 604.781 140.812 604.344C141.464 603.901 142.44 603.656 143.742 603.609L145.258 603.562V603.18C145.258 602.721 145.138 602.385 144.898 602.172C144.659 601.958 144.326 601.852 143.898 601.852C143.477 601.852 143.062 601.911 142.656 602.031C142.25 602.151 141.844 602.302 141.438 602.484L140.648 600.875C141.112 600.63 141.63 600.438 142.203 600.297C142.781 600.156 143.378 600.086 143.992 600.086ZM145.258 604.953L144.336 604.984C143.565 605.005 143.029 605.143 142.727 605.398C142.43 605.654 142.281 605.99 142.281 606.406C142.281 606.771 142.388 607.031 142.602 607.188C142.815 607.339 143.094 607.414 143.438 607.414C143.948 607.414 144.378 607.263 144.727 606.961C145.081 606.659 145.258 606.229 145.258 605.672V604.953ZM155.047 600.102C155.979 600.102 156.729 600.357 157.297 600.867C157.865 601.372 158.148 602.185 158.148 603.305V609H155.766V603.898C155.766 603.273 155.651 602.802 155.422 602.484C155.198 602.167 154.844 602.008 154.359 602.008C153.63 602.008 153.133 602.255 152.867 602.75C152.602 603.245 152.469 603.958 152.469 604.891V609H150.086V600.266H151.906L152.227 601.383H152.359C152.547 601.081 152.779 600.836 153.055 600.648C153.336 600.461 153.646 600.323 153.984 600.234C154.328 600.146 154.682 600.102 155.047 600.102ZM164.281 607.258C164.542 607.258 164.794 607.232 165.039 607.18C165.289 607.128 165.536 607.062 165.781 606.984V608.758C165.526 608.872 165.208 608.966 164.828 609.039C164.453 609.117 164.042 609.156 163.594 609.156C163.073 609.156 162.604 609.073 162.188 608.906C161.776 608.734 161.451 608.44 161.211 608.023C160.977 607.602 160.859 607.016 160.859 606.266V602.055H159.719V601.047L161.031 600.25L161.719 598.406H163.242V600.266H165.688V602.055H163.242V606.266C163.242 606.599 163.336 606.849 163.523 607.016C163.716 607.177 163.969 607.258 164.281 607.258ZM175.391 607.258C175.651 607.258 175.904 607.232 176.148 607.18C176.398 607.128 176.646 607.062 176.891 606.984V608.758C176.635 608.872 176.318 608.966 175.938 609.039C175.562 609.117 175.151 609.156 174.703 609.156C174.182 609.156 173.714 609.073 173.297 608.906C172.885 608.734 172.56 608.44 172.32 608.023C172.086 607.602 171.969 607.016 171.969 606.266V602.055H170.828V601.047L172.141 600.25L172.828 598.406H174.352V600.266H176.797V602.055H174.352V606.266C174.352 606.599 174.445 606.849 174.633 607.016C174.826 607.177 175.078 607.258 175.391 607.258ZM186.602 604.617C186.602 605.346 186.503 605.992 186.305 606.555C186.112 607.117 185.828 607.594 185.453 607.984C185.083 608.37 184.635 608.661 184.109 608.859C183.589 609.057 183 609.156 182.344 609.156C181.729 609.156 181.164 609.057 180.648 608.859C180.138 608.661 179.693 608.37 179.312 607.984C178.938 607.594 178.646 607.117 178.438 606.555C178.234 605.992 178.133 605.346 178.133 604.617C178.133 603.648 178.305 602.828 178.648 602.156C178.992 601.484 179.482 600.974 180.117 600.625C180.753 600.276 181.51 600.102 182.391 600.102C183.208 600.102 183.932 600.276 184.562 600.625C185.198 600.974 185.695 601.484 186.055 602.156C186.419 602.828 186.602 603.648 186.602 604.617ZM180.562 604.617C180.562 605.19 180.625 605.672 180.75 606.062C180.875 606.453 181.07 606.747 181.336 606.945C181.602 607.143 181.948 607.242 182.375 607.242C182.797 607.242 183.138 607.143 183.398 606.945C183.664 606.747 183.857 606.453 183.977 606.062C184.102 605.672 184.164 605.19 184.164 604.617C184.164 604.039 184.102 603.56 183.977 603.18C183.857 602.794 183.664 602.505 183.398 602.312C183.133 602.12 182.786 602.023 182.359 602.023C181.729 602.023 181.271 602.24 180.984 602.672C180.703 603.104 180.562 603.753 180.562 604.617ZM198.82 606.406C198.82 607 198.68 607.503 198.398 607.914C198.122 608.32 197.708 608.63 197.156 608.844C196.604 609.052 195.917 609.156 195.094 609.156C194.484 609.156 193.961 609.117 193.523 609.039C193.091 608.961 192.654 608.831 192.211 608.648V606.68C192.685 606.893 193.193 607.07 193.734 607.211C194.281 607.346 194.76 607.414 195.172 607.414C195.635 607.414 195.966 607.346 196.164 607.211C196.367 607.07 196.469 606.888 196.469 606.664C196.469 606.518 196.427 606.388 196.344 606.273C196.266 606.154 196.094 606.021 195.828 605.875C195.562 605.724 195.146 605.529 194.578 605.289C194.031 605.06 193.581 604.828 193.227 604.594C192.878 604.359 192.617 604.083 192.445 603.766C192.279 603.443 192.195 603.034 192.195 602.539C192.195 601.732 192.508 601.125 193.133 600.719C193.763 600.307 194.604 600.102 195.656 600.102C196.198 600.102 196.714 600.156 197.203 600.266C197.698 600.375 198.206 600.549 198.727 600.789L198.008 602.508C197.576 602.32 197.167 602.167 196.781 602.047C196.401 601.927 196.013 601.867 195.617 601.867C195.268 601.867 195.005 601.914 194.828 602.008C194.651 602.102 194.562 602.245 194.562 602.438C194.562 602.578 194.607 602.703 194.695 602.812C194.789 602.922 194.966 603.044 195.227 603.18C195.492 603.31 195.88 603.479 196.391 603.688C196.885 603.891 197.315 604.104 197.68 604.328C198.044 604.547 198.326 604.82 198.523 605.148C198.721 605.471 198.82 605.891 198.82 606.406ZM204.281 600.102C205.089 600.102 205.784 600.258 206.367 600.57C206.951 600.878 207.401 601.326 207.719 601.914C208.036 602.503 208.195 603.221 208.195 604.07V605.227H202.562C202.589 605.898 202.789 606.427 203.164 606.812C203.544 607.193 204.07 607.383 204.742 607.383C205.299 607.383 205.81 607.326 206.273 607.211C206.737 607.096 207.214 606.924 207.703 606.695V608.539C207.271 608.753 206.818 608.909 206.344 609.008C205.875 609.107 205.305 609.156 204.633 609.156C203.758 609.156 202.982 608.995 202.305 608.672C201.633 608.349 201.104 607.857 200.719 607.195C200.339 606.534 200.148 605.701 200.148 604.695C200.148 603.674 200.32 602.826 200.664 602.148C201.013 601.466 201.497 600.956 202.117 600.617C202.737 600.273 203.458 600.102 204.281 600.102ZM204.297 601.797C203.833 601.797 203.448 601.945 203.141 602.242C202.839 602.539 202.664 603.005 202.617 603.641H205.961C205.956 603.286 205.891 602.971 205.766 602.695C205.646 602.419 205.464 602.201 205.219 602.039C204.979 601.878 204.672 601.797 204.297 601.797ZM213.734 600.102C214.542 600.102 215.237 600.258 215.82 600.57C216.404 600.878 216.854 601.326 217.172 601.914C217.49 602.503 217.648 603.221 217.648 604.07V605.227H212.016C212.042 605.898 212.242 606.427 212.617 606.812C212.997 607.193 213.523 607.383 214.195 607.383C214.753 607.383 215.263 607.326 215.727 607.211C216.19 607.096 216.667 606.924 217.156 606.695V608.539C216.724 608.753 216.271 608.909 215.797 609.008C215.328 609.107 214.758 609.156 214.086 609.156C213.211 609.156 212.435 608.995 211.758 608.672C211.086 608.349 210.557 607.857 210.172 607.195C209.792 606.534 209.602 605.701 209.602 604.695C209.602 603.674 209.773 602.826 210.117 602.148C210.466 601.466 210.951 600.956 211.57 600.617C212.19 600.273 212.911 600.102 213.734 600.102ZM213.75 601.797C213.286 601.797 212.901 601.945 212.594 602.242C212.292 602.539 212.117 603.005 212.07 603.641H215.414C215.409 603.286 215.344 602.971 215.219 602.695C215.099 602.419 214.917 602.201 214.672 602.039C214.432 601.878 214.125 601.797 213.75 601.797ZM226.125 596.844V599.672C226.125 600 226.115 600.326 226.094 600.648C226.078 600.971 226.057 601.221 226.031 601.398H226.125C226.354 601.039 226.667 600.734 227.062 600.484C227.458 600.229 227.971 600.102 228.602 600.102C229.581 600.102 230.375 600.484 230.984 601.25C231.594 602.016 231.898 603.138 231.898 604.617C231.898 605.612 231.758 606.448 231.477 607.125C231.195 607.797 230.802 608.305 230.297 608.648C229.792 608.987 229.206 609.156 228.539 609.156C227.898 609.156 227.393 609.042 227.023 608.812C226.654 608.583 226.354 608.326 226.125 608.039H225.961L225.562 609H223.742V596.844H226.125ZM227.836 602.008C227.419 602.008 227.089 602.094 226.844 602.266C226.599 602.438 226.419 602.695 226.305 603.039C226.195 603.383 226.135 603.818 226.125 604.344V604.602C226.125 605.451 226.25 606.102 226.5 606.555C226.75 607.003 227.206 607.227 227.867 607.227C228.357 607.227 228.745 607 229.031 606.547C229.323 606.094 229.469 605.44 229.469 604.586C229.469 603.732 229.323 603.089 229.031 602.656C228.74 602.224 228.341 602.008 227.836 602.008ZM241.805 604.617C241.805 605.346 241.706 605.992 241.508 606.555C241.315 607.117 241.031 607.594 240.656 607.984C240.286 608.37 239.839 608.661 239.312 608.859C238.792 609.057 238.203 609.156 237.547 609.156C236.932 609.156 236.367 609.057 235.852 608.859C235.341 608.661 234.896 608.37 234.516 607.984C234.141 607.594 233.849 607.117 233.641 606.555C233.438 605.992 233.336 605.346 233.336 604.617C233.336 603.648 233.508 602.828 233.852 602.156C234.195 601.484 234.685 600.974 235.32 600.625C235.956 600.276 236.714 600.102 237.594 600.102C238.411 600.102 239.135 600.276 239.766 600.625C240.401 600.974 240.898 601.484 241.258 602.156C241.622 602.828 241.805 603.648 241.805 604.617ZM235.766 604.617C235.766 605.19 235.828 605.672 235.953 606.062C236.078 606.453 236.273 606.747 236.539 606.945C236.805 607.143 237.151 607.242 237.578 607.242C238 607.242 238.341 607.143 238.602 606.945C238.867 606.747 239.06 606.453 239.18 606.062C239.305 605.672 239.367 605.19 239.367 604.617C239.367 604.039 239.305 603.56 239.18 603.18C239.06 602.794 238.867 602.505 238.602 602.312C238.336 602.12 237.99 602.023 237.562 602.023C236.932 602.023 236.474 602.24 236.188 602.672C235.906 603.104 235.766 603.753 235.766 604.617ZM247.453 607.258C247.714 607.258 247.966 607.232 248.211 607.18C248.461 607.128 248.708 607.062 248.953 606.984V608.758C248.698 608.872 248.38 608.966 248 609.039C247.625 609.117 247.214 609.156 246.766 609.156C246.245 609.156 245.776 609.073 245.359 608.906C244.948 608.734 244.622 608.44 244.383 608.023C244.148 607.602 244.031 607.016 244.031 606.266V602.055H242.891V601.047L244.203 600.25L244.891 598.406H246.414V600.266H248.859V602.055H246.414V606.266C246.414 606.599 246.508 606.849 246.695 607.016C246.888 607.177 247.141 607.258 247.453 607.258ZM253.109 596.844V599.32C253.109 599.753 253.094 600.164 253.062 600.555C253.036 600.945 253.016 601.221 253 601.383H253.125C253.312 601.081 253.534 600.836 253.789 600.648C254.049 600.461 254.336 600.323 254.648 600.234C254.961 600.146 255.297 600.102 255.656 600.102C256.286 600.102 256.836 600.214 257.305 600.438C257.773 600.656 258.138 601.003 258.398 601.477C258.659 601.945 258.789 602.555 258.789 603.305V609H256.406V603.898C256.406 603.273 256.292 602.802 256.062 602.484C255.833 602.167 255.479 602.008 255 602.008C254.521 602.008 254.143 602.12 253.867 602.344C253.591 602.562 253.396 602.888 253.281 603.32C253.167 603.747 253.109 604.271 253.109 604.891V609H250.727V596.844H253.109Z" fill="#3A4850"/>
<path d="M116.008 609.977H259.992V610.367H116.008V609.977Z" fill="#3A4850"/>
<g filter="url(#filter0_d_1_1947)">
<rect x="51" y="359" width="274" height="138" rx="14" fill="white"/>
<rect x="51" y="359" width="274" height="138" rx="14" stroke="#E7EBED" stroke-opacity="0.80141"/>
</g>
<path fill-rule="evenodd" clip-rule="evenodd" d="M194.5 402.95L192.967 405.198V407.577L193.733 409.35L194.5 411.702L195.5 413.4C195.5 413.4 197.624 416.725 197.624 416.725C197.624 416.725 202.897 417.989 202.897 417.989L210.094 417.402L213.134 415.494L215.74 411.702C215.74 411.702 216.559 407.424 216.559 406.906C216.559 406.387 215.74 403.592 215.74 403.592C215.74 403.592 214.419 401.813 213.776 401.813C213.134 401.813 208.248 401.214 207.366 401.214C206.484 401.214 200.153 401.214 200.153 401.214L197.24 402.425L194.5 402.95Z" fill="url(#paint0_linear_1_1947)"/>
<path fill-rule="evenodd" clip-rule="evenodd" d="M162.6 402.95L161.067 405.198V407.577L161.833 409.35L162.6 411.702V413.68C162.6 413.68 165.724 416.725 165.724 416.725C165.724 416.725 170.997 417.989 170.997 417.989L178.194 417.402L180.855 415.299L182.909 412.507C182.909 412.507 184.41 406.6 184.41 406.082C184.41 405.564 182.909 403.353 182.909 403.353C182.909 403.353 181.497 402.043 180.855 402.043C180.212 402.043 176.348 401.214 175.466 401.214C174.584 401.214 168.253 401.214 168.253 401.214L164.183 401.214L162.6 402.95Z" fill="url(#paint1_linear_1_1947)"/>
<path fill-rule="evenodd" clip-rule="evenodd" d="M214.763 412.112C213.607 414.811 212.72 415.813 210.137 416.738C207.554 417.664 201.115 417.741 198.532 416.199C195.949 414.656 193.597 409.606 194.021 406.213C194.445 402.82 200.151 401.702 200.151 401.702C209.096 400.391 213.414 402.011 214.802 403.167C216.19 404.324 215.92 409.413 214.763 412.112M179.082 416.198C176.499 417.741 170.06 417.664 167.477 416.738C164.894 415.813 164.007 414.81 162.85 412.112C161.694 409.413 161.424 404.323 162.812 403.167C164.2 402.01 168.518 400.391 177.463 401.702C177.463 401.702 183.169 402.82 183.593 406.213C184.017 409.606 181.665 414.656 179.082 416.198M220.226 400.967C211.551 397.509 202.369 399.06 195.34 400.796C192.752 401.436 190.07 401.595 190.043 401.597L188.81 401.609L187.586 401.597C187.544 401.595 184.862 401.436 182.274 400.796C168.892 397.49 161.945 399.15 157.388 400.966C157.115 401.075 156.939 401.335 156.939 401.628L156.939 404.544C156.939 404.755 157.032 404.954 157.194 405.09C157.767 405.569 158.505 406.238 158.768 406.706C158.914 406.964 159.296 407.923 159.907 409.467C160.699 411.467 161.783 414.205 162.215 414.9C162.613 415.543 164.854 418.763 169.811 419.022C174.314 419.257 178.906 419.288 181.235 416.919C183.562 414.553 186.181 408.185 186.207 408.122C186.407 407.565 187.207 406.515 188.807 406.602C188.868 406.599 188.93 406.597 188.989 406.597C190.462 406.597 191.215 407.587 191.411 408.134C191.432 408.186 194.052 414.553 196.379 416.92C198.708 419.288 203.301 419.258 207.803 419.022C212.759 418.763 215 415.544 215.399 414.901C215.831 414.206 216.915 411.467 217.706 409.468C218.318 407.924 218.7 406.964 218.845 406.706C219.108 406.239 219.847 405.57 220.42 405.091C220.581 404.955 220.674 404.756 220.674 404.544V401.629C220.674 401.335 220.498 401.076 220.226 400.967" fill="#3A4850"/>
<path d="M171.335 407.627C171.268 407.561 171.161 407.561 171.094 407.627L166.505 412.216C166.439 412.283 166.439 412.39 166.505 412.457C166.538 412.49 166.582 412.507 166.625 412.507C166.669 412.507 166.712 412.49 166.746 412.457L171.335 407.867C171.401 407.801 171.401 407.693 171.335 407.627" stroke="white" stroke-width="0.55"/>
<path d="M177.893 405.247L168.885 414.256C168.819 414.322 168.819 414.43 168.885 414.496C168.918 414.53 168.962 414.546 169.005 414.546C169.048 414.546 169.092 414.53 169.125 414.496L178.134 405.488C178.2 405.421 178.2 405.314 178.134 405.247C178.067 405.181 177.96 405.181 177.893 405.247" stroke="white" stroke-width="0.55"/>
<path d="M204.31 407.627C204.243 407.561 204.135 407.561 204.069 407.627L199.48 412.216C199.414 412.283 199.414 412.39 199.48 412.457C199.513 412.49 199.557 412.507 199.6 412.507C199.643 412.507 199.687 412.49 199.72 412.457L204.31 407.867C204.376 407.801 204.376 407.693 204.31 407.627" stroke="white" stroke-width="0.55"/>
<path d="M210.868 405.247L201.86 414.256C201.793 414.322 201.793 414.43 201.86 414.496C201.893 414.53 201.936 414.546 201.98 414.546C202.023 414.546 202.067 414.53 202.1 414.496L211.108 405.488C211.175 405.421 211.175 405.314 211.108 405.247C211.042 405.181 210.934 405.181 210.868 405.247" stroke="white" stroke-width="0.55"/>
<path d="M150.145 452.502C150.145 453.264 149.957 453.92 149.582 454.471C149.213 455.021 148.68 455.443 147.982 455.736C147.291 456.029 146.465 456.176 145.504 456.176C145.035 456.176 144.587 456.149 144.159 456.097C143.731 456.044 143.327 455.968 142.946 455.868C142.571 455.763 142.229 455.637 141.918 455.49V453.504C142.439 453.732 143.022 453.94 143.667 454.128C144.312 454.31 144.968 454.4 145.636 454.4C146.181 454.4 146.632 454.33 146.989 454.189C147.353 454.043 147.622 453.838 147.798 453.574C147.974 453.305 148.062 452.991 148.062 452.634C148.062 452.253 147.959 451.931 147.754 451.667C147.549 451.403 147.238 451.163 146.822 450.946C146.412 450.724 145.896 450.486 145.275 450.234C144.854 450.064 144.449 449.871 144.062 449.654C143.682 449.438 143.342 449.183 143.043 448.89C142.744 448.597 142.507 448.251 142.331 447.853C142.161 447.448 142.076 446.974 142.076 446.429C142.076 445.702 142.249 445.081 142.595 444.565C142.946 444.05 143.438 443.654 144.071 443.379C144.71 443.104 145.454 442.966 146.304 442.966C146.978 442.966 147.61 443.036 148.202 443.177C148.8 443.317 149.386 443.517 149.96 443.774L149.292 445.471C148.765 445.254 148.252 445.081 147.754 444.952C147.262 444.823 146.758 444.759 146.242 444.759C145.797 444.759 145.419 444.826 145.108 444.961C144.798 445.096 144.561 445.286 144.396 445.532C144.238 445.772 144.159 446.06 144.159 446.394C144.159 446.769 144.25 447.085 144.432 447.343C144.619 447.595 144.906 447.826 145.293 448.037C145.686 448.248 146.189 448.482 146.805 448.74C147.514 449.033 148.114 449.341 148.606 449.663C149.104 449.985 149.485 450.372 149.749 450.823C150.013 451.269 150.145 451.828 150.145 452.502ZM160.894 446.271V456H159.268L158.986 454.69H158.872C158.667 455.024 158.406 455.303 158.09 455.525C157.773 455.742 157.422 455.903 157.035 456.009C156.648 456.12 156.241 456.176 155.813 456.176C155.081 456.176 154.454 456.053 153.933 455.807C153.417 455.555 153.021 455.168 152.746 454.646C152.471 454.125 152.333 453.451 152.333 452.625V446.271H154.407V452.238C154.407 452.994 154.56 453.56 154.864 453.935C155.175 454.31 155.655 454.497 156.306 454.497C156.933 454.497 157.431 454.368 157.8 454.11C158.169 453.853 158.43 453.472 158.582 452.968C158.74 452.464 158.819 451.846 158.819 451.113V446.271H160.894ZM168.927 446.086C170.022 446.086 170.875 446.37 171.484 446.938C172.1 447.501 172.407 448.406 172.407 449.654V456H170.342V450.041C170.342 449.285 170.187 448.72 169.876 448.345C169.565 447.964 169.085 447.773 168.435 447.773C167.491 447.773 166.835 448.063 166.466 448.644C166.103 449.224 165.921 450.064 165.921 451.166V456H163.855V446.271H165.464L165.754 447.589H165.868C166.079 447.249 166.34 446.971 166.65 446.754C166.967 446.531 167.318 446.364 167.705 446.253C168.098 446.142 168.505 446.086 168.927 446.086ZM178.076 460.324C176.758 460.324 175.747 460.087 175.044 459.612C174.341 459.138 173.989 458.473 173.989 457.617C173.989 457.02 174.177 456.513 174.552 456.097C174.927 455.687 175.463 455.402 176.16 455.244C175.896 455.127 175.668 454.945 175.475 454.699C175.287 454.447 175.193 454.169 175.193 453.864C175.193 453.501 175.296 453.19 175.501 452.933C175.706 452.675 176.014 452.426 176.424 452.186C175.914 451.969 175.504 451.617 175.193 451.131C174.889 450.639 174.736 450.062 174.736 449.399C174.736 448.696 174.886 448.099 175.185 447.606C175.483 447.108 175.92 446.73 176.494 446.473C177.068 446.209 177.763 446.077 178.577 446.077C178.753 446.077 178.943 446.089 179.148 446.112C179.359 446.13 179.553 446.153 179.729 446.183C179.91 446.206 180.048 446.232 180.142 446.262H183.508V447.413L181.855 447.721C182.014 447.943 182.14 448.198 182.233 448.485C182.327 448.767 182.374 449.074 182.374 449.408C182.374 450.416 182.025 451.21 181.328 451.79C180.637 452.364 179.682 452.651 178.463 452.651C178.17 452.64 177.886 452.616 177.61 452.581C177.399 452.71 177.238 452.854 177.127 453.012C177.016 453.164 176.96 453.337 176.96 453.53C176.96 453.688 177.016 453.817 177.127 453.917C177.238 454.011 177.402 454.081 177.619 454.128C177.842 454.175 178.111 454.198 178.428 454.198H180.106C181.173 454.198 181.987 454.424 182.55 454.875C183.112 455.326 183.394 455.988 183.394 456.861C183.394 457.969 182.937 458.821 182.022 459.419C181.108 460.022 179.793 460.324 178.076 460.324ZM178.155 458.874C178.876 458.874 179.482 458.804 179.975 458.663C180.467 458.522 180.839 458.32 181.091 458.057C181.343 457.799 181.469 457.491 181.469 457.134C181.469 456.817 181.39 456.574 181.231 456.404C181.073 456.234 180.836 456.117 180.52 456.053C180.203 455.988 179.811 455.956 179.342 455.956H177.812C177.432 455.956 177.095 456.015 176.802 456.132C176.509 456.255 176.28 456.431 176.116 456.659C175.958 456.888 175.879 457.163 175.879 457.485C175.879 457.931 176.075 458.273 176.468 458.514C176.866 458.754 177.429 458.874 178.155 458.874ZM178.56 451.298C179.163 451.298 179.611 451.134 179.904 450.806C180.197 450.472 180.344 450.003 180.344 449.399C180.344 448.743 180.191 448.251 179.887 447.923C179.588 447.595 179.143 447.431 178.551 447.431C177.971 447.431 177.528 447.598 177.224 447.932C176.925 448.266 176.775 448.761 176.775 449.417C176.775 450.009 176.925 450.472 177.224 450.806C177.528 451.134 177.974 451.298 178.56 451.298ZM187.357 456H185.283V442.324H187.357V456ZM194.125 446.086C195.355 446.086 196.284 446.358 196.911 446.903C197.544 447.448 197.86 448.298 197.86 449.452V456H196.393L195.997 454.62H195.927C195.651 454.972 195.367 455.262 195.074 455.49C194.781 455.719 194.441 455.889 194.055 456C193.674 456.117 193.208 456.176 192.657 456.176C192.077 456.176 191.559 456.07 191.102 455.859C190.645 455.643 190.284 455.314 190.021 454.875C189.757 454.436 189.625 453.879 189.625 453.205C189.625 452.203 189.997 451.45 190.741 450.946C191.491 450.442 192.622 450.164 194.134 450.111L195.821 450.05V449.54C195.821 448.866 195.663 448.386 195.347 448.099C195.036 447.812 194.597 447.668 194.028 447.668C193.542 447.668 193.07 447.738 192.613 447.879C192.156 448.02 191.711 448.192 191.277 448.397L190.609 446.938C191.084 446.687 191.623 446.481 192.227 446.323C192.836 446.165 193.469 446.086 194.125 446.086ZM195.812 451.351L194.556 451.395C193.524 451.43 192.801 451.605 192.385 451.922C191.969 452.238 191.761 452.672 191.761 453.223C191.761 453.703 191.904 454.055 192.191 454.277C192.479 454.494 192.856 454.603 193.325 454.603C194.04 454.603 194.632 454.4 195.101 453.996C195.575 453.586 195.812 452.985 195.812 452.194V451.351ZM207.291 453.223C207.291 453.861 207.136 454.4 206.825 454.84C206.515 455.279 206.061 455.613 205.463 455.842C204.871 456.064 204.145 456.176 203.283 456.176C202.604 456.176 202.018 456.126 201.525 456.026C201.039 455.933 200.579 455.786 200.146 455.587V453.803C200.608 454.02 201.127 454.207 201.701 454.365C202.281 454.523 202.829 454.603 203.345 454.603C204.024 454.603 204.514 454.497 204.812 454.286C205.111 454.069 205.261 453.782 205.261 453.425C205.261 453.214 205.199 453.026 205.076 452.862C204.959 452.692 204.736 452.52 204.408 452.344C204.086 452.162 203.611 451.945 202.984 451.693C202.369 451.447 201.851 451.201 201.429 450.955C201.007 450.709 200.688 450.413 200.471 450.067C200.254 449.716 200.146 449.268 200.146 448.723C200.146 447.861 200.485 447.208 201.165 446.763C201.851 446.312 202.756 446.086 203.881 446.086C204.479 446.086 205.041 446.147 205.568 446.271C206.102 446.388 206.623 446.561 207.133 446.789L206.482 448.345C206.043 448.151 205.601 447.993 205.155 447.87C204.716 447.741 204.268 447.677 203.811 447.677C203.277 447.677 202.87 447.759 202.589 447.923C202.313 448.087 202.176 448.321 202.176 448.626C202.176 448.854 202.243 449.048 202.378 449.206C202.513 449.364 202.744 449.522 203.072 449.681C203.406 449.839 203.869 450.035 204.461 450.27C205.041 450.492 205.542 450.727 205.964 450.973C206.392 451.213 206.72 451.509 206.948 451.86C207.177 452.212 207.291 452.666 207.291 453.223ZM216.062 453.223C216.062 453.861 215.907 454.4 215.597 454.84C215.286 455.279 214.832 455.613 214.234 455.842C213.643 456.064 212.916 456.176 212.055 456.176C211.375 456.176 210.789 456.126 210.297 456.026C209.811 455.933 209.351 455.786 208.917 455.587V453.803C209.38 454.02 209.898 454.207 210.473 454.365C211.053 454.523 211.601 454.603 212.116 454.603C212.796 454.603 213.285 454.497 213.584 454.286C213.883 454.069 214.032 453.782 214.032 453.425C214.032 453.214 213.971 453.026 213.848 452.862C213.73 452.692 213.508 452.52 213.18 452.344C212.857 452.162 212.383 451.945 211.756 451.693C211.141 451.447 210.622 451.201 210.2 450.955C209.778 450.709 209.459 450.413 209.242 450.067C209.025 449.716 208.917 449.268 208.917 448.723C208.917 447.861 209.257 447.208 209.937 446.763C210.622 446.312 211.527 446.086 212.652 446.086C213.25 446.086 213.812 446.147 214.34 446.271C214.873 446.388 215.395 446.561 215.904 446.789L215.254 448.345C214.814 448.151 214.372 447.993 213.927 447.87C213.487 447.741 213.039 447.677 212.582 447.677C212.049 447.677 211.642 447.759 211.36 447.923C211.085 448.087 210.947 448.321 210.947 448.626C210.947 448.854 211.015 449.048 211.149 449.206C211.284 449.364 211.516 449.522 211.844 449.681C212.178 449.839 212.641 450.035 213.232 450.27C213.812 450.492 214.313 450.727 214.735 450.973C215.163 451.213 215.491 451.509 215.72 451.86C215.948 452.212 216.062 452.666 216.062 453.223ZM222.171 446.086C223.038 446.086 223.782 446.265 224.403 446.622C225.024 446.979 225.502 447.486 225.836 448.143C226.17 448.799 226.337 449.584 226.337 450.498V451.605H219.842C219.865 452.549 220.117 453.275 220.598 453.785C221.084 454.295 221.764 454.55 222.637 454.55C223.258 454.55 223.814 454.491 224.307 454.374C224.805 454.251 225.317 454.072 225.845 453.838V455.517C225.358 455.745 224.863 455.912 224.359 456.018C223.855 456.123 223.252 456.176 222.549 456.176C221.594 456.176 220.753 455.991 220.026 455.622C219.306 455.247 218.74 454.69 218.33 453.952C217.926 453.214 217.724 452.297 217.724 451.201C217.724 450.111 217.908 449.186 218.277 448.424C218.646 447.662 219.165 447.082 219.833 446.684C220.501 446.285 221.28 446.086 222.171 446.086ZM222.171 447.642C221.521 447.642 220.993 447.853 220.589 448.274C220.19 448.696 219.956 449.314 219.886 450.129H224.315C224.31 449.643 224.228 449.212 224.069 448.837C223.917 448.462 223.683 448.169 223.366 447.958C223.056 447.747 222.657 447.642 222.171 447.642ZM235.205 453.223C235.205 453.861 235.05 454.4 234.739 454.84C234.429 455.279 233.975 455.613 233.377 455.842C232.785 456.064 232.059 456.176 231.197 456.176C230.518 456.176 229.932 456.126 229.439 456.026C228.953 455.933 228.493 455.786 228.06 455.587V453.803C228.522 454.02 229.041 454.207 229.615 454.365C230.195 454.523 230.743 454.603 231.259 454.603C231.938 454.603 232.428 454.497 232.727 454.286C233.025 454.069 233.175 453.782 233.175 453.425C233.175 453.214 233.113 453.026 232.99 452.862C232.873 452.692 232.65 452.52 232.322 452.344C232 452.162 231.525 451.945 230.898 451.693C230.283 451.447 229.765 451.201 229.343 450.955C228.921 450.709 228.602 450.413 228.385 450.067C228.168 449.716 228.06 449.268 228.06 448.723C228.06 447.861 228.399 447.208 229.079 446.763C229.765 446.312 230.67 446.086 231.795 446.086C232.393 446.086 232.955 446.147 233.482 446.271C234.016 446.388 234.537 446.561 235.047 446.789L234.396 448.345C233.957 448.151 233.515 447.993 233.069 447.87C232.63 447.741 232.182 447.677 231.725 447.677C231.191 447.677 230.784 447.759 230.503 447.923C230.228 448.087 230.09 448.321 230.09 448.626C230.09 448.854 230.157 449.048 230.292 449.206C230.427 449.364 230.658 449.522 230.986 449.681C231.32 449.839 231.783 450.035 232.375 450.27C232.955 450.492 233.456 450.727 233.878 450.973C234.306 451.213 234.634 451.509 234.862 451.86C235.091 452.212 235.205 452.666 235.205 453.223Z" fill="#425A60"/>
<g filter="url(#filter1_d_1_1947)">
<rect x="51" y="207" width="274" height="138" rx="14" fill="white"/>
<rect x="51" y="207" width="274" height="138" rx="14" stroke="#E7EBED" stroke-opacity="0.80141"/>
</g>
<path d="M151.366 302.741H144.089V289.892H151.366V291.667H146.198V295.156H151.041V296.923H146.198V300.957H151.366V302.741ZM152.465 293.012H154.715L156.71 298.566C156.798 298.818 156.877 299.067 156.947 299.313C157.023 299.554 157.088 299.791 157.141 300.025C157.199 300.26 157.246 300.494 157.281 300.729H157.334C157.393 300.424 157.475 300.084 157.58 299.709C157.691 299.328 157.814 298.947 157.949 298.566L159.865 293.012H162.089L157.914 304.077C157.674 304.71 157.378 305.249 157.026 305.694C156.681 306.146 156.271 306.485 155.796 306.714C155.321 306.948 154.779 307.065 154.17 307.065C153.877 307.065 153.622 307.048 153.405 307.013C153.188 306.983 153.004 306.951 152.852 306.916V305.264C152.975 305.293 153.13 305.319 153.317 305.343C153.505 305.366 153.698 305.378 153.897 305.378C154.267 305.378 154.586 305.305 154.855 305.158C155.125 305.012 155.354 304.804 155.541 304.534C155.729 304.271 155.884 303.969 156.007 303.629L156.35 302.715L152.465 293.012ZM167.441 292.827C168.309 292.827 169.053 293.006 169.674 293.363C170.295 293.721 170.772 294.228 171.106 294.884C171.44 295.54 171.607 296.325 171.607 297.239V298.347H165.112C165.136 299.29 165.388 300.017 165.868 300.526C166.354 301.036 167.034 301.291 167.907 301.291C168.528 301.291 169.085 301.232 169.577 301.115C170.075 300.992 170.588 300.813 171.115 300.579V302.258C170.629 302.486 170.134 302.653 169.63 302.759C169.126 302.864 168.522 302.917 167.819 302.917C166.864 302.917 166.023 302.732 165.297 302.363C164.576 301.988 164.011 301.432 163.601 300.693C163.196 299.955 162.994 299.038 162.994 297.942C162.994 296.853 163.179 295.927 163.548 295.165C163.917 294.403 164.436 293.823 165.104 293.425C165.771 293.026 166.551 292.827 167.441 292.827ZM167.441 294.383C166.791 294.383 166.264 294.594 165.859 295.016C165.461 295.438 165.227 296.056 165.156 296.87H169.586C169.58 296.384 169.498 295.953 169.34 295.578C169.188 295.203 168.953 294.91 168.637 294.699C168.326 294.488 167.928 294.383 167.441 294.383ZM176.714 307.065C175.396 307.065 174.385 306.828 173.682 306.354C172.979 305.879 172.627 305.214 172.627 304.358C172.627 303.761 172.814 303.254 173.189 302.838C173.564 302.428 174.101 302.144 174.798 301.985C174.534 301.868 174.306 301.687 174.112 301.44C173.925 301.188 173.831 300.91 173.831 300.605C173.831 300.242 173.934 299.932 174.139 299.674C174.344 299.416 174.651 299.167 175.062 298.927C174.552 298.71 174.142 298.358 173.831 297.872C173.526 297.38 173.374 296.803 173.374 296.141C173.374 295.438 173.523 294.84 173.822 294.348C174.121 293.85 174.558 293.472 175.132 293.214C175.706 292.95 176.4 292.818 177.215 292.818C177.391 292.818 177.581 292.83 177.786 292.854C177.997 292.871 178.19 292.895 178.366 292.924C178.548 292.947 178.686 292.974 178.779 293.003H182.146V294.154L180.493 294.462C180.651 294.685 180.777 294.939 180.871 295.227C180.965 295.508 181.012 295.815 181.012 296.149C181.012 297.157 180.663 297.951 179.966 298.531C179.274 299.105 178.319 299.393 177.101 299.393C176.808 299.381 176.523 299.357 176.248 299.322C176.037 299.451 175.876 299.595 175.765 299.753C175.653 299.905 175.598 300.078 175.598 300.271C175.598 300.43 175.653 300.559 175.765 300.658C175.876 300.752 176.04 300.822 176.257 300.869C176.479 300.916 176.749 300.939 177.065 300.939H178.744C179.811 300.939 180.625 301.165 181.188 301.616C181.75 302.067 182.031 302.729 182.031 303.603C182.031 304.71 181.574 305.562 180.66 306.16C179.746 306.764 178.431 307.065 176.714 307.065ZM176.793 305.615C177.514 305.615 178.12 305.545 178.612 305.404C179.104 305.264 179.477 305.062 179.729 304.798C179.98 304.54 180.106 304.232 180.106 303.875C180.106 303.559 180.027 303.315 179.869 303.146C179.711 302.976 179.474 302.858 179.157 302.794C178.841 302.729 178.448 302.697 177.979 302.697H176.45C176.069 302.697 175.732 302.756 175.439 302.873C175.146 302.996 174.918 303.172 174.754 303.4C174.596 303.629 174.517 303.904 174.517 304.227C174.517 304.672 174.713 305.015 175.105 305.255C175.504 305.495 176.066 305.615 176.793 305.615ZM177.197 298.039C177.801 298.039 178.249 297.875 178.542 297.547C178.835 297.213 178.981 296.744 178.981 296.141C178.981 295.484 178.829 294.992 178.524 294.664C178.226 294.336 177.78 294.172 177.188 294.172C176.608 294.172 176.166 294.339 175.861 294.673C175.562 295.007 175.413 295.502 175.413 296.158C175.413 296.75 175.562 297.213 175.861 297.547C176.166 297.875 176.611 298.039 177.197 298.039ZM185.995 302.741H183.921V289.065H185.995V302.741ZM192.763 292.827C193.993 292.827 194.922 293.1 195.549 293.645C196.182 294.189 196.498 295.039 196.498 296.193V302.741H195.03L194.635 301.361H194.564C194.289 301.713 194.005 302.003 193.712 302.231C193.419 302.46 193.079 302.63 192.692 302.741C192.312 302.858 191.846 302.917 191.295 302.917C190.715 302.917 190.196 302.812 189.739 302.601C189.282 302.384 188.922 302.056 188.658 301.616C188.395 301.177 188.263 300.62 188.263 299.946C188.263 298.944 188.635 298.191 189.379 297.688C190.129 297.184 191.26 296.905 192.771 296.853L194.459 296.791V296.281C194.459 295.607 194.301 295.127 193.984 294.84C193.674 294.553 193.234 294.409 192.666 294.409C192.18 294.409 191.708 294.479 191.251 294.62C190.794 294.761 190.349 294.934 189.915 295.139L189.247 293.68C189.722 293.428 190.261 293.223 190.864 293.064C191.474 292.906 192.106 292.827 192.763 292.827ZM194.45 298.092L193.193 298.136C192.162 298.171 191.438 298.347 191.022 298.663C190.606 298.979 190.398 299.413 190.398 299.964C190.398 300.444 190.542 300.796 190.829 301.019C191.116 301.235 191.494 301.344 191.963 301.344C192.678 301.344 193.27 301.142 193.738 300.737C194.213 300.327 194.45 299.727 194.45 298.936V298.092ZM205.929 299.964C205.929 300.603 205.773 301.142 205.463 301.581C205.152 302.021 204.698 302.354 204.101 302.583C203.509 302.806 202.782 302.917 201.921 302.917C201.241 302.917 200.655 302.867 200.163 302.768C199.677 302.674 199.217 302.527 198.783 302.328V300.544C199.246 300.761 199.765 300.948 200.339 301.106C200.919 301.265 201.467 301.344 201.982 301.344C202.662 301.344 203.151 301.238 203.45 301.027C203.749 300.811 203.898 300.523 203.898 300.166C203.898 299.955 203.837 299.768 203.714 299.604C203.597 299.434 203.374 299.261 203.046 299.085C202.724 298.903 202.249 298.687 201.622 298.435C201.007 298.188 200.488 297.942 200.066 297.696C199.645 297.45 199.325 297.154 199.108 296.809C198.892 296.457 198.783 296.009 198.783 295.464C198.783 294.603 199.123 293.949 199.803 293.504C200.488 293.053 201.394 292.827 202.519 292.827C203.116 292.827 203.679 292.889 204.206 293.012C204.739 293.129 205.261 293.302 205.771 293.53L205.12 295.086C204.681 294.893 204.238 294.734 203.793 294.611C203.354 294.482 202.905 294.418 202.448 294.418C201.915 294.418 201.508 294.5 201.227 294.664C200.951 294.828 200.813 295.062 200.813 295.367C200.813 295.596 200.881 295.789 201.016 295.947C201.15 296.105 201.382 296.264 201.71 296.422C202.044 296.58 202.507 296.776 203.099 297.011C203.679 297.233 204.18 297.468 204.602 297.714C205.029 297.954 205.357 298.25 205.586 298.602C205.814 298.953 205.929 299.407 205.929 299.964ZM214.7 299.964C214.7 300.603 214.545 301.142 214.234 301.581C213.924 302.021 213.47 302.354 212.872 302.583C212.28 302.806 211.554 302.917 210.692 302.917C210.013 302.917 209.427 302.867 208.935 302.768C208.448 302.674 207.988 302.527 207.555 302.328V300.544C208.018 300.761 208.536 300.948 209.11 301.106C209.69 301.265 210.238 301.344 210.754 301.344C211.434 301.344 211.923 301.238 212.222 301.027C212.521 300.811 212.67 300.523 212.67 300.166C212.67 299.955 212.608 299.768 212.485 299.604C212.368 299.434 212.146 299.261 211.817 299.085C211.495 298.903 211.021 298.687 210.394 298.435C209.778 298.188 209.26 297.942 208.838 297.696C208.416 297.45 208.097 297.154 207.88 296.809C207.663 296.457 207.555 296.009 207.555 295.464C207.555 294.603 207.895 293.949 208.574 293.504C209.26 293.053 210.165 292.827 211.29 292.827C211.888 292.827 212.45 292.889 212.978 293.012C213.511 293.129 214.032 293.302 214.542 293.53L213.892 295.086C213.452 294.893 213.01 294.734 212.564 294.611C212.125 294.482 211.677 294.418 211.22 294.418C210.687 294.418 210.279 294.5 209.998 294.664C209.723 294.828 209.585 295.062 209.585 295.367C209.585 295.596 209.652 295.789 209.787 295.947C209.922 296.105 210.153 296.264 210.481 296.422C210.815 296.58 211.278 296.776 211.87 297.011C212.45 297.233 212.951 297.468 213.373 297.714C213.801 297.954 214.129 298.25 214.357 298.602C214.586 298.953 214.7 299.407 214.7 299.964ZM220.809 292.827C221.676 292.827 222.42 293.006 223.041 293.363C223.662 293.721 224.14 294.228 224.474 294.884C224.808 295.54 224.975 296.325 224.975 297.239V298.347H218.479C218.503 299.29 218.755 300.017 219.235 300.526C219.722 301.036 220.401 301.291 221.274 301.291C221.896 301.291 222.452 301.232 222.944 301.115C223.442 300.992 223.955 300.813 224.482 300.579V302.258C223.996 302.486 223.501 302.653 222.997 302.759C222.493 302.864 221.89 302.917 221.187 302.917C220.231 302.917 219.391 302.732 218.664 302.363C217.943 301.988 217.378 301.432 216.968 300.693C216.563 299.955 216.361 299.038 216.361 297.942C216.361 296.853 216.546 295.927 216.915 295.165C217.284 294.403 217.803 293.823 218.471 293.425C219.139 293.026 219.918 292.827 220.809 292.827ZM220.809 294.383C220.158 294.383 219.631 294.594 219.227 295.016C218.828 295.438 218.594 296.056 218.523 296.87H222.953C222.947 296.384 222.865 295.953 222.707 295.578C222.555 295.203 222.32 294.91 222.004 294.699C221.693 294.488 221.295 294.383 220.809 294.383ZM233.843 299.964C233.843 300.603 233.688 301.142 233.377 301.581C233.066 302.021 232.612 302.354 232.015 302.583C231.423 302.806 230.696 302.917 229.835 302.917C229.155 302.917 228.569 302.867 228.077 302.768C227.591 302.674 227.131 302.527 226.697 302.328V300.544C227.16 300.761 227.679 300.948 228.253 301.106C228.833 301.265 229.381 301.344 229.896 301.344C230.576 301.344 231.065 301.238 231.364 301.027C231.663 300.811 231.812 300.523 231.812 300.166C231.812 299.955 231.751 299.768 231.628 299.604C231.511 299.434 231.288 299.261 230.96 299.085C230.638 298.903 230.163 298.687 229.536 298.435C228.921 298.188 228.402 297.942 227.98 297.696C227.559 297.45 227.239 297.154 227.022 296.809C226.806 296.457 226.697 296.009 226.697 295.464C226.697 294.603 227.037 293.949 227.717 293.504C228.402 293.053 229.308 292.827 230.433 292.827C231.03 292.827 231.593 292.889 232.12 293.012C232.653 293.129 233.175 293.302 233.685 293.53L233.034 295.086C232.595 294.893 232.152 294.734 231.707 294.611C231.268 294.482 230.819 294.418 230.362 294.418C229.829 294.418 229.422 294.5 229.141 294.664C228.865 294.828 228.728 295.062 228.728 295.367C228.728 295.596 228.795 295.789 228.93 295.947C229.064 296.105 229.296 296.264 229.624 296.422C229.958 296.58 230.421 296.776 231.013 297.011C231.593 297.233 232.094 297.468 232.516 297.714C232.943 297.954 233.271 298.25 233.5 298.602C233.729 298.953 233.843 299.407 233.843 299.964Z" fill="#425A60"/>
<path fill-rule="evenodd" clip-rule="evenodd" d="M214.763 258.853C213.607 261.552 212.72 262.554 210.137 263.479C207.554 264.405 201.115 264.482 198.532 262.94C195.949 261.398 193.597 256.347 194.021 252.954C194.445 249.561 200.151 248.443 200.151 248.443C209.096 247.132 213.414 248.752 214.802 249.908C216.19 251.065 215.92 256.154 214.763 258.853M179.082 262.94C176.499 264.482 170.06 264.405 167.477 263.479C164.894 262.554 164.007 261.552 162.85 258.853C161.694 256.154 161.424 251.065 162.812 249.908C164.2 248.752 168.518 247.132 177.463 248.443C177.463 248.443 183.169 249.561 183.593 252.954C184.017 256.347 181.665 261.398 179.082 262.94M220.226 247.708C211.551 244.25 202.369 245.801 195.34 247.538C192.752 248.177 190.07 248.336 190.043 248.338L188.81 248.35L187.586 248.339C187.544 248.336 184.862 248.177 182.274 247.537C168.892 244.231 161.945 245.892 157.388 247.708C157.115 247.816 156.939 248.076 156.939 248.369L156.939 251.285C156.939 251.496 157.032 251.695 157.194 251.831C157.767 252.31 158.505 252.979 158.768 253.447C158.914 253.705 159.296 254.665 159.907 256.209C160.699 258.208 161.783 260.946 162.215 261.642C162.613 262.284 164.854 265.504 169.811 265.763C174.314 265.998 178.906 266.029 181.235 263.661C183.562 261.295 186.181 254.927 186.207 254.863C186.407 254.306 187.207 253.256 188.807 253.343C188.868 253.34 188.93 253.338 188.989 253.338C190.462 253.338 191.215 254.328 191.411 254.875C191.432 254.927 194.052 261.295 196.379 263.661C198.708 266.029 203.301 265.999 207.803 265.763C212.759 265.504 215 262.285 215.399 261.642C215.831 260.947 216.915 258.209 217.706 256.209C218.318 254.665 218.7 253.706 218.845 253.448C219.108 252.98 219.847 252.311 220.42 251.832C220.581 251.696 220.674 251.497 220.674 251.285V248.37C220.674 248.076 220.498 247.817 220.226 247.708" fill="#3A4850"/>
<path d="M171.335 254.368C171.268 254.302 171.161 254.302 171.094 254.368L166.505 258.957C166.439 259.024 166.439 259.132 166.505 259.198C166.538 259.231 166.582 259.248 166.625 259.248C166.669 259.248 166.712 259.231 166.746 259.198L171.335 254.609C171.401 254.542 171.401 254.434 171.335 254.368" stroke="#B0BDC5" stroke-width="0.55"/>
<path d="M177.893 251.989L168.885 260.997C168.819 261.063 168.819 261.171 168.885 261.237C168.918 261.271 168.962 261.287 169.005 261.287C169.048 261.287 169.092 261.271 169.125 261.237L178.134 252.229C178.2 252.163 178.2 252.055 178.134 251.989C178.067 251.922 177.96 251.922 177.893 251.989" stroke="#B0BDC5" stroke-width="0.55"/>
<path d="M204.31 254.368C204.243 254.302 204.135 254.302 204.069 254.368L199.48 258.957C199.414 259.024 199.414 259.132 199.48 259.198C199.513 259.231 199.557 259.248 199.6 259.248C199.643 259.248 199.687 259.231 199.72 259.198L204.31 254.609C204.376 254.542 204.376 254.434 204.31 254.368" stroke="#B0BDC5" stroke-width="0.55"/>
<path d="M210.868 251.989L201.86 260.997C201.793 261.063 201.793 261.171 201.86 261.237C201.893 261.271 201.936 261.287 201.98 261.287C202.023 261.287 202.067 261.271 202.1 261.237L211.108 252.229C211.175 252.163 211.175 252.055 211.108 251.989C211.042 251.922 210.934 251.922 210.868 251.989" stroke="#B0BDC5" stroke-width="0.55"/>
<path d="M91.8359 138H91.0156L87.8809 126.984C87.6204 126.079 87.4251 125.337 87.2949 124.758C87.1908 125.324 87.041 125.975 86.8457 126.711C86.6569 127.447 85.6087 131.21 83.7012 138H82.8613L78.9355 123.723H79.9805L82.4805 132.922C82.5781 133.293 82.6693 133.638 82.7539 133.957C82.8385 134.27 82.9134 134.566 82.9785 134.846C83.0501 135.119 83.112 135.386 83.1641 135.646C83.2227 135.9 83.2747 136.158 83.3203 136.418C83.4766 135.533 83.8086 134.188 84.3164 132.385L86.7578 123.723H87.8613L90.7227 133.664C91.0547 134.81 91.2923 135.734 91.4355 136.438C91.5202 135.969 91.6276 135.471 91.7578 134.943C91.8945 134.416 92.9004 130.676 94.7754 123.723H95.7812L91.8359 138ZM105.469 138V131.115C105.469 130.048 105.244 129.273 104.795 128.791C104.346 128.303 103.649 128.059 102.705 128.059C101.436 128.059 100.505 128.381 99.9121 129.025C99.3262 129.663 99.0332 130.702 99.0332 132.141V138H98.0664V122.805H99.0332V127.639L98.9844 128.996H99.0527C99.4499 128.358 99.9512 127.896 100.557 127.609C101.162 127.323 101.914 127.18 102.812 127.18C105.221 127.18 106.426 128.472 106.426 131.057V138H105.469ZM116.309 138L116.064 136.32H115.986C115.452 137.004 114.902 137.489 114.336 137.775C113.776 138.055 113.112 138.195 112.344 138.195C111.302 138.195 110.492 137.928 109.912 137.395C109.333 136.861 109.043 136.122 109.043 135.178C109.043 134.143 109.473 133.339 110.332 132.766C111.198 132.193 112.448 131.89 114.082 131.857L116.104 131.799V131.096C116.104 130.087 115.898 129.325 115.488 128.811C115.078 128.296 114.417 128.039 113.506 128.039C112.523 128.039 111.504 128.312 110.449 128.859L110.088 128.02C111.253 127.473 112.406 127.199 113.545 127.199C114.71 127.199 115.579 127.502 116.152 128.107C116.732 128.713 117.021 129.657 117.021 130.939V138H116.309ZM112.402 137.316C113.535 137.316 114.427 136.994 115.078 136.35C115.736 135.699 116.064 134.797 116.064 133.645V132.6L114.209 132.678C112.718 132.749 111.654 132.984 111.016 133.381C110.384 133.771 110.068 134.383 110.068 135.217C110.068 135.881 110.27 136.398 110.674 136.77C111.084 137.134 111.66 137.316 112.402 137.316ZM123.271 137.336C123.883 137.336 124.417 137.284 124.873 137.18V137.961C124.404 138.117 123.864 138.195 123.252 138.195C122.314 138.195 121.621 137.945 121.172 137.443C120.729 136.942 120.508 136.154 120.508 135.08V128.225H118.936V127.658L120.508 127.219L120.996 124.816H121.494V127.385H124.609V128.225H121.494V134.943C121.494 135.757 121.637 136.359 121.924 136.75C122.21 137.141 122.66 137.336 123.271 137.336ZM135.166 137.336C135.778 137.336 136.312 137.284 136.768 137.18V137.961C136.299 138.117 135.758 138.195 135.146 138.195C134.209 138.195 133.516 137.945 133.066 137.443C132.624 136.942 132.402 136.154 132.402 135.08V128.225H130.83V127.658L132.402 127.219L132.891 124.816H133.389V127.385H136.504V128.225H133.389V134.943C133.389 135.757 133.532 136.359 133.818 136.75C134.105 137.141 134.554 137.336 135.166 137.336ZM137.285 127.385H138.281L140.527 133.342C141.211 135.171 141.644 136.405 141.826 137.043H141.885C142.158 136.203 142.604 134.95 143.223 133.283L145.469 127.385H146.465L141.709 139.719C141.325 140.721 141.003 141.398 140.742 141.75C140.482 142.102 140.176 142.365 139.824 142.541C139.479 142.717 139.059 142.805 138.564 142.805C138.193 142.805 137.78 142.736 137.324 142.6V141.76C137.702 141.864 138.109 141.916 138.545 141.916C138.877 141.916 139.17 141.838 139.424 141.682C139.678 141.525 139.906 141.281 140.107 140.949C140.316 140.624 140.553 140.103 140.82 139.387C141.094 138.677 141.27 138.215 141.348 138L137.285 127.385ZM152.783 138.195C151.149 138.195 149.958 137.583 149.209 136.359H149.141L149.17 137.18C149.196 137.661 149.209 138.189 149.209 138.762V142.805H148.242V127.385H149.062L149.248 128.898H149.307C150.036 127.753 151.201 127.18 152.803 127.18C154.235 127.18 155.326 127.652 156.074 128.596C156.829 129.533 157.207 130.9 157.207 132.697C157.207 134.442 156.81 135.796 156.016 136.76C155.228 137.717 154.15 138.195 152.783 138.195ZM152.764 137.336C153.851 137.336 154.691 136.932 155.283 136.125C155.882 135.318 156.182 134.188 156.182 132.736C156.182 129.618 155.055 128.059 152.803 128.059C151.566 128.059 150.658 128.4 150.078 129.084C149.499 129.761 149.209 130.868 149.209 132.404V132.717C149.209 134.377 149.486 135.562 150.039 136.271C150.599 136.981 151.507 137.336 152.764 137.336ZM164.443 138.195C162.9 138.195 161.696 137.72 160.83 136.77C159.971 135.819 159.541 134.488 159.541 132.775C159.541 131.083 159.958 129.729 160.791 128.713C161.624 127.691 162.747 127.18 164.16 127.18C165.41 127.18 166.396 127.616 167.119 128.488C167.842 129.361 168.203 130.546 168.203 132.043V132.824H160.557C160.57 134.283 160.908 135.396 161.572 136.164C162.243 136.932 163.2 137.316 164.443 137.316C165.049 137.316 165.579 137.274 166.035 137.189C166.497 137.105 167.08 136.923 167.783 136.643V137.521C167.184 137.782 166.631 137.958 166.123 138.049C165.615 138.146 165.055 138.195 164.443 138.195ZM164.16 128.039C163.138 128.039 162.318 128.378 161.699 129.055C161.081 129.725 160.719 130.695 160.615 131.965H167.178C167.178 130.734 166.911 129.774 166.377 129.084C165.843 128.387 165.104 128.039 164.16 128.039ZM185.107 132.678C185.107 134.41 184.688 135.764 183.848 136.74C183.008 137.71 181.849 138.195 180.371 138.195C179.44 138.195 178.62 137.971 177.91 137.521C177.201 137.072 176.657 136.428 176.279 135.588C175.902 134.748 175.713 133.778 175.713 132.678C175.713 130.946 176.133 129.598 176.973 128.635C177.812 127.665 178.965 127.18 180.43 127.18C181.888 127.18 183.031 127.671 183.857 128.654C184.691 129.631 185.107 130.972 185.107 132.678ZM176.729 132.678C176.729 134.136 177.048 135.275 177.686 136.096C178.33 136.91 179.238 137.316 180.41 137.316C181.582 137.316 182.487 136.91 183.125 136.096C183.77 135.275 184.092 134.136 184.092 132.678C184.092 131.213 183.766 130.077 183.115 129.27C182.471 128.462 181.562 128.059 180.391 128.059C179.219 128.059 178.314 128.462 177.676 129.27C177.044 130.07 176.729 131.206 176.729 132.678ZM191.992 128.225H189.492V138H188.525V128.225H186.553V127.658L188.525 127.297V126.477C188.525 125.174 188.763 124.221 189.238 123.615C189.72 123.003 190.505 122.697 191.592 122.697C192.178 122.697 192.764 122.785 193.35 122.961L193.125 123.801C192.604 123.638 192.087 123.557 191.572 123.557C190.817 123.557 190.28 123.781 189.961 124.23C189.648 124.673 189.492 125.396 189.492 126.398V127.385H191.992V128.225ZM207.52 127.385V128.059L205.322 128.195C205.908 128.924 206.201 129.725 206.201 130.598C206.201 131.62 205.859 132.45 205.176 133.088C204.499 133.719 203.587 134.035 202.441 134.035C201.96 134.035 201.621 134.016 201.426 133.977C201.042 134.178 200.749 134.416 200.547 134.689C200.345 134.963 200.244 135.253 200.244 135.559C200.244 135.897 200.371 136.145 200.625 136.301C200.885 136.457 201.318 136.535 201.924 136.535H203.779C204.932 136.535 205.814 136.77 206.426 137.238C207.038 137.701 207.344 138.387 207.344 139.299C207.344 140.419 206.888 141.281 205.977 141.887C205.072 142.499 203.779 142.805 202.1 142.805C200.765 142.805 199.73 142.548 198.994 142.033C198.265 141.519 197.9 140.803 197.9 139.885C197.9 139.156 198.125 138.55 198.574 138.068C199.03 137.587 199.645 137.258 200.42 137.082C200.101 136.945 199.844 136.753 199.648 136.506C199.46 136.252 199.365 135.962 199.365 135.637C199.365 134.927 199.818 134.302 200.723 133.762C200.104 133.508 199.622 133.111 199.277 132.57C198.932 132.023 198.76 131.398 198.76 130.695C198.76 129.634 199.095 128.785 199.766 128.146C200.443 127.502 201.354 127.18 202.5 127.18C203.197 127.18 203.737 127.248 204.121 127.385H207.52ZM198.926 139.797C198.926 141.255 200.01 141.984 202.178 141.984C204.964 141.984 206.357 141.096 206.357 139.318C206.357 138.68 206.139 138.218 205.703 137.932C205.267 137.645 204.561 137.502 203.584 137.502H201.846C199.899 137.502 198.926 138.267 198.926 139.797ZM199.736 130.695C199.736 131.516 199.984 132.154 200.479 132.609C200.98 133.059 201.647 133.283 202.48 133.283C203.366 133.283 204.043 133.059 204.512 132.609C204.987 132.16 205.225 131.509 205.225 130.656C205.225 129.751 204.98 129.074 204.492 128.625C204.01 128.169 203.333 127.941 202.461 127.941C201.615 127.941 200.947 128.186 200.459 128.674C199.977 129.156 199.736 129.829 199.736 130.695ZM210.674 138H209.707V122.805H210.674V138ZM220.684 138L220.439 136.32H220.361C219.827 137.004 219.277 137.489 218.711 137.775C218.151 138.055 217.487 138.195 216.719 138.195C215.677 138.195 214.867 137.928 214.287 137.395C213.708 136.861 213.418 136.122 213.418 135.178C213.418 134.143 213.848 133.339 214.707 132.766C215.573 132.193 216.823 131.89 218.457 131.857L220.479 131.799V131.096C220.479 130.087 220.273 129.325 219.863 128.811C219.453 128.296 218.792 128.039 217.881 128.039C216.898 128.039 215.879 128.312 214.824 128.859L214.463 128.02C215.628 127.473 216.781 127.199 217.92 127.199C219.085 127.199 219.954 127.502 220.527 128.107C221.107 128.713 221.396 129.657 221.396 130.939V138H220.684ZM216.777 137.316C217.91 137.316 218.802 136.994 219.453 136.35C220.111 135.699 220.439 134.797 220.439 133.645V132.6L218.584 132.678C217.093 132.749 216.029 132.984 215.391 133.381C214.759 133.771 214.443 134.383 214.443 135.217C214.443 135.881 214.645 136.398 215.049 136.77C215.459 137.134 216.035 137.316 216.777 137.316ZM231.426 135.236C231.426 136.187 231.064 136.919 230.342 137.434C229.619 137.941 228.594 138.195 227.266 138.195C225.846 138.195 224.72 137.977 223.887 137.541V136.496C224.954 137.03 226.081 137.297 227.266 137.297C228.314 137.297 229.108 137.124 229.648 136.779C230.195 136.428 230.469 135.962 230.469 135.383C230.469 134.849 230.251 134.4 229.814 134.035C229.385 133.671 228.675 133.312 227.686 132.961C226.624 132.577 225.879 132.248 225.449 131.975C225.02 131.695 224.694 131.382 224.473 131.037C224.258 130.686 224.15 130.259 224.15 129.758C224.15 128.964 224.482 128.335 225.146 127.873C225.817 127.411 226.751 127.18 227.949 127.18C229.095 127.18 230.182 127.395 231.211 127.824L230.85 128.703C229.808 128.273 228.841 128.059 227.949 128.059C227.083 128.059 226.396 128.202 225.889 128.488C225.381 128.775 225.127 129.172 225.127 129.68C225.127 130.233 225.322 130.676 225.713 131.008C226.11 131.34 226.882 131.711 228.027 132.121C228.984 132.466 229.681 132.779 230.117 133.059C230.553 133.332 230.879 133.645 231.094 133.996C231.315 134.348 231.426 134.761 231.426 135.236ZM240.742 135.236C240.742 136.187 240.381 136.919 239.658 137.434C238.936 137.941 237.91 138.195 236.582 138.195C235.163 138.195 234.036 137.977 233.203 137.541V136.496C234.271 137.03 235.397 137.297 236.582 137.297C237.63 137.297 238.424 137.124 238.965 136.779C239.512 136.428 239.785 135.962 239.785 135.383C239.785 134.849 239.567 134.4 239.131 134.035C238.701 133.671 237.992 133.312 237.002 132.961C235.941 132.577 235.195 132.248 234.766 131.975C234.336 131.695 234.01 131.382 233.789 131.037C233.574 130.686 233.467 130.259 233.467 129.758C233.467 128.964 233.799 128.335 234.463 127.873C235.133 127.411 236.068 127.18 237.266 127.18C238.411 127.18 239.499 127.395 240.527 127.824L240.166 128.703C239.124 128.273 238.158 128.059 237.266 128.059C236.4 128.059 235.713 128.202 235.205 128.488C234.697 128.775 234.443 129.172 234.443 129.68C234.443 130.233 234.639 130.676 235.029 131.008C235.426 131.34 236.198 131.711 237.344 132.121C238.301 132.466 238.997 132.779 239.434 133.059C239.87 133.332 240.195 133.645 240.41 133.996C240.632 134.348 240.742 134.761 240.742 135.236ZM247.764 138.195C246.221 138.195 245.016 137.72 244.15 136.77C243.291 135.819 242.861 134.488 242.861 132.775C242.861 131.083 243.278 129.729 244.111 128.713C244.945 127.691 246.068 127.18 247.48 127.18C248.73 127.18 249.717 127.616 250.439 128.488C251.162 129.361 251.523 130.546 251.523 132.043V132.824H243.877C243.89 134.283 244.229 135.396 244.893 136.164C245.563 136.932 246.52 137.316 247.764 137.316C248.369 137.316 248.9 137.274 249.355 137.189C249.818 137.105 250.4 136.923 251.104 136.643V137.521C250.505 137.782 249.951 137.958 249.443 138.049C248.936 138.146 248.376 138.195 247.764 138.195ZM247.48 128.039C246.458 128.039 245.638 128.378 245.02 129.055C244.401 129.725 244.04 130.695 243.936 131.965H250.498C250.498 130.734 250.231 129.774 249.697 129.084C249.163 128.387 248.424 128.039 247.48 128.039ZM261.035 135.236C261.035 136.187 260.674 136.919 259.951 137.434C259.229 137.941 258.203 138.195 256.875 138.195C255.456 138.195 254.329 137.977 253.496 137.541V136.496C254.564 137.03 255.69 137.297 256.875 137.297C257.923 137.297 258.717 137.124 259.258 136.779C259.805 136.428 260.078 135.962 260.078 135.383C260.078 134.849 259.86 134.4 259.424 134.035C258.994 133.671 258.285 133.312 257.295 132.961C256.234 132.577 255.488 132.248 255.059 131.975C254.629 131.695 254.303 131.382 254.082 131.037C253.867 130.686 253.76 130.259 253.76 129.758C253.76 128.964 254.092 128.335 254.756 127.873C255.426 127.411 256.361 127.18 257.559 127.18C258.704 127.18 259.792 127.395 260.82 127.824L260.459 128.703C259.417 128.273 258.451 128.059 257.559 128.059C256.693 128.059 256.006 128.202 255.498 128.488C254.99 128.775 254.736 129.172 254.736 129.68C254.736 130.233 254.932 130.676 255.322 131.008C255.719 131.34 256.491 131.711 257.637 132.121C258.594 132.466 259.29 132.779 259.727 133.059C260.163 133.332 260.488 133.645 260.703 133.996C260.924 134.348 261.035 134.761 261.035 135.236ZM275.41 138L275.166 136.32H275.088C274.554 137.004 274.004 137.489 273.438 137.775C272.878 138.055 272.214 138.195 271.445 138.195C270.404 138.195 269.593 137.928 269.014 137.395C268.434 136.861 268.145 136.122 268.145 135.178C268.145 134.143 268.574 133.339 269.434 132.766C270.299 132.193 271.549 131.89 273.184 131.857L275.205 131.799V131.096C275.205 130.087 275 129.325 274.59 128.811C274.18 128.296 273.519 128.039 272.607 128.039C271.624 128.039 270.605 128.312 269.551 128.859L269.189 128.02C270.355 127.473 271.507 127.199 272.646 127.199C273.812 127.199 274.681 127.502 275.254 128.107C275.833 128.713 276.123 129.657 276.123 130.939V138H275.41ZM271.504 137.316C272.637 137.316 273.529 136.994 274.18 136.35C274.837 135.699 275.166 134.797 275.166 133.645V132.6L273.311 132.678C271.82 132.749 270.755 132.984 270.117 133.381C269.486 133.771 269.17 134.383 269.17 135.217C269.17 135.881 269.372 136.398 269.775 136.77C270.186 137.134 270.762 137.316 271.504 137.316ZM283.75 127.18C284.199 127.18 284.681 127.225 285.195 127.316L285.01 128.244C284.567 128.133 284.108 128.078 283.633 128.078C282.728 128.078 281.986 128.462 281.406 129.23C280.827 129.999 280.537 130.969 280.537 132.141V138H279.57V127.385H280.391L280.488 129.299H280.557C280.993 128.518 281.458 127.971 281.953 127.658C282.448 127.339 283.047 127.18 283.75 127.18ZM291.65 138.195C290.107 138.195 288.903 137.72 288.037 136.77C287.178 135.819 286.748 134.488 286.748 132.775C286.748 131.083 287.165 129.729 287.998 128.713C288.831 127.691 289.954 127.18 291.367 127.18C292.617 127.18 293.604 127.616 294.326 128.488C295.049 129.361 295.41 130.546 295.41 132.043V132.824H287.764C287.777 134.283 288.115 135.396 288.779 136.164C289.45 136.932 290.407 137.316 291.65 137.316C292.256 137.316 292.786 137.274 293.242 137.189C293.704 137.105 294.287 136.923 294.99 136.643V137.521C294.391 137.782 293.838 137.958 293.33 138.049C292.822 138.146 292.262 138.195 291.65 138.195ZM291.367 128.039C290.345 128.039 289.525 128.378 288.906 129.055C288.288 129.725 287.926 130.695 287.822 131.965H294.385C294.385 130.734 294.118 129.774 293.584 129.084C293.05 128.387 292.311 128.039 291.367 128.039ZM116.768 157.385H117.764L120.01 163.342C120.693 165.171 121.126 166.405 121.309 167.043H121.367C121.641 166.203 122.087 164.95 122.705 163.283L124.951 157.385H125.947L121.191 169.719C120.807 170.721 120.485 171.398 120.225 171.75C119.964 172.102 119.658 172.365 119.307 172.541C118.962 172.717 118.542 172.805 118.047 172.805C117.676 172.805 117.262 172.736 116.807 172.6V171.76C117.184 171.864 117.591 171.916 118.027 171.916C118.359 171.916 118.652 171.838 118.906 171.682C119.16 171.525 119.388 171.281 119.59 170.949C119.798 170.624 120.036 170.103 120.303 169.387C120.576 168.677 120.752 168.215 120.83 168L116.768 157.385ZM136.504 162.678C136.504 164.41 136.084 165.764 135.244 166.74C134.404 167.71 133.245 168.195 131.768 168.195C130.837 168.195 130.016 167.971 129.307 167.521C128.597 167.072 128.053 166.428 127.676 165.588C127.298 164.748 127.109 163.778 127.109 162.678C127.109 160.946 127.529 159.598 128.369 158.635C129.209 157.665 130.361 157.18 131.826 157.18C133.285 157.18 134.427 157.671 135.254 158.654C136.087 159.631 136.504 160.972 136.504 162.678ZM128.125 162.678C128.125 164.136 128.444 165.275 129.082 166.096C129.727 166.91 130.635 167.316 131.807 167.316C132.979 167.316 133.883 166.91 134.521 166.096C135.166 165.275 135.488 164.136 135.488 162.678C135.488 161.213 135.163 160.077 134.512 159.27C133.867 158.462 132.959 158.059 131.787 158.059C130.615 158.059 129.71 158.462 129.072 159.27C128.441 160.07 128.125 161.206 128.125 162.678ZM140.283 157.385V164.26C140.283 165.327 140.508 166.105 140.957 166.594C141.406 167.076 142.103 167.316 143.047 167.316C144.31 167.316 145.238 166.997 145.83 166.359C146.429 165.721 146.729 164.683 146.729 163.244V157.385H147.686V168H146.865L146.689 166.535H146.631C145.941 167.642 144.714 168.195 142.949 168.195C140.534 168.195 139.326 166.903 139.326 164.318V157.385H140.283ZM157.402 168H156.436V152.805H157.402V168ZM169.746 162.678C169.746 164.41 169.326 165.764 168.486 166.74C167.646 167.71 166.488 168.195 165.01 168.195C164.079 168.195 163.258 167.971 162.549 167.521C161.839 167.072 161.296 166.428 160.918 165.588C160.54 164.748 160.352 163.778 160.352 162.678C160.352 160.946 160.771 159.598 161.611 158.635C162.451 157.665 163.604 157.18 165.068 157.18C166.527 157.18 167.669 157.671 168.496 158.654C169.329 159.631 169.746 160.972 169.746 162.678ZM161.367 162.678C161.367 164.136 161.686 165.275 162.324 166.096C162.969 166.91 163.877 167.316 165.049 167.316C166.221 167.316 167.126 166.91 167.764 166.096C168.408 165.275 168.73 164.136 168.73 162.678C168.73 161.213 168.405 160.077 167.754 159.27C167.109 158.462 166.201 158.059 165.029 158.059C163.857 158.059 162.952 158.462 162.314 159.27C161.683 160.07 161.367 161.206 161.367 162.678ZM181.465 162.678C181.465 164.41 181.045 165.764 180.205 166.74C179.365 167.71 178.206 168.195 176.729 168.195C175.798 168.195 174.977 167.971 174.268 167.521C173.558 167.072 173.014 166.428 172.637 165.588C172.259 164.748 172.07 163.778 172.07 162.678C172.07 160.946 172.49 159.598 173.33 158.635C174.17 157.665 175.322 157.18 176.787 157.18C178.245 157.18 179.388 157.671 180.215 158.654C181.048 159.631 181.465 160.972 181.465 162.678ZM173.086 162.678C173.086 164.136 173.405 165.275 174.043 166.096C174.688 166.91 175.596 167.316 176.768 167.316C177.939 167.316 178.844 166.91 179.482 166.096C180.127 165.275 180.449 164.136 180.449 162.678C180.449 161.213 180.124 160.077 179.473 159.27C178.828 158.462 177.92 158.059 176.748 158.059C175.576 158.059 174.671 158.462 174.033 159.27C173.402 160.07 173.086 161.206 173.086 162.678ZM185.352 163.342L190.771 157.385H191.943L187.764 161.916L192.305 168H191.143L187.109 162.639L185.371 164.221V168H184.404V152.805H185.371V160.422L185.303 163.342H185.352ZM195.059 168H194.092V157.385H195.059V168ZM193.955 154.436C193.955 153.811 194.16 153.498 194.57 153.498C194.772 153.498 194.928 153.579 195.039 153.742C195.156 153.905 195.215 154.136 195.215 154.436C195.215 154.729 195.156 154.96 195.039 155.129C194.928 155.298 194.772 155.383 194.57 155.383C194.16 155.383 193.955 155.067 193.955 154.436ZM206.025 168V161.115C206.025 160.048 205.801 159.273 205.352 158.791C204.902 158.303 204.206 158.059 203.262 158.059C201.992 158.059 201.061 158.381 200.469 159.025C199.883 159.663 199.59 160.702 199.59 162.141V168H198.623V157.385H199.443L199.629 158.84H199.688C200.378 157.733 201.605 157.18 203.369 157.18C205.778 157.18 206.982 158.472 206.982 161.057V168H206.025ZM218.701 157.385V158.059L216.504 158.195C217.09 158.924 217.383 159.725 217.383 160.598C217.383 161.62 217.041 162.45 216.357 163.088C215.68 163.719 214.769 164.035 213.623 164.035C213.141 164.035 212.803 164.016 212.607 163.977C212.223 164.178 211.93 164.416 211.729 164.689C211.527 164.963 211.426 165.253 211.426 165.559C211.426 165.897 211.553 166.145 211.807 166.301C212.067 166.457 212.5 166.535 213.105 166.535H214.961C216.113 166.535 216.995 166.77 217.607 167.238C218.219 167.701 218.525 168.387 218.525 169.299C218.525 170.419 218.07 171.281 217.158 171.887C216.253 172.499 214.961 172.805 213.281 172.805C211.947 172.805 210.911 172.548 210.176 172.033C209.447 171.519 209.082 170.803 209.082 169.885C209.082 169.156 209.307 168.55 209.756 168.068C210.212 167.587 210.827 167.258 211.602 167.082C211.283 166.945 211.025 166.753 210.83 166.506C210.641 166.252 210.547 165.962 210.547 165.637C210.547 164.927 210.999 164.302 211.904 163.762C211.286 163.508 210.804 163.111 210.459 162.57C210.114 162.023 209.941 161.398 209.941 160.695C209.941 159.634 210.277 158.785 210.947 158.146C211.624 157.502 212.536 157.18 213.682 157.18C214.378 157.18 214.919 157.248 215.303 157.385H218.701ZM210.107 169.797C210.107 171.255 211.191 171.984 213.359 171.984C216.146 171.984 217.539 171.096 217.539 169.318C217.539 168.68 217.321 168.218 216.885 167.932C216.449 167.645 215.742 167.502 214.766 167.502H213.027C211.081 167.502 210.107 168.267 210.107 169.797ZM210.918 160.695C210.918 161.516 211.165 162.154 211.66 162.609C212.161 163.059 212.829 163.283 213.662 163.283C214.548 163.283 215.225 163.059 215.693 162.609C216.169 162.16 216.406 161.509 216.406 160.656C216.406 159.751 216.162 159.074 215.674 158.625C215.192 158.169 214.515 157.941 213.643 157.941C212.796 157.941 212.129 158.186 211.641 158.674C211.159 159.156 210.918 159.829 210.918 160.695ZM230.029 158.225H227.529V168H226.562V158.225H224.59V157.658L226.562 157.297V156.477C226.562 155.174 226.8 154.221 227.275 153.615C227.757 153.003 228.542 152.697 229.629 152.697C230.215 152.697 230.801 152.785 231.387 152.961L231.162 153.801C230.641 153.638 230.124 153.557 229.609 153.557C228.854 153.557 228.317 153.781 227.998 154.23C227.686 154.673 227.529 155.396 227.529 156.398V157.385H230.029V158.225ZM240.859 162.678C240.859 164.41 240.439 165.764 239.6 166.74C238.76 167.71 237.601 168.195 236.123 168.195C235.192 168.195 234.372 167.971 233.662 167.521C232.952 167.072 232.409 166.428 232.031 165.588C231.654 164.748 231.465 163.778 231.465 162.678C231.465 160.946 231.885 159.598 232.725 158.635C233.564 157.665 234.717 157.18 236.182 157.18C237.64 157.18 238.783 157.671 239.609 158.654C240.443 159.631 240.859 160.972 240.859 162.678ZM232.48 162.678C232.48 164.136 232.799 165.275 233.438 166.096C234.082 166.91 234.99 167.316 236.162 167.316C237.334 167.316 238.239 166.91 238.877 166.096C239.521 165.275 239.844 164.136 239.844 162.678C239.844 161.213 239.518 160.077 238.867 159.27C238.223 158.462 237.314 158.059 236.143 158.059C234.971 158.059 234.066 158.462 233.428 159.27C232.796 160.07 232.48 161.206 232.48 162.678ZM247.979 157.18C248.428 157.18 248.91 157.225 249.424 157.316L249.238 158.244C248.796 158.133 248.337 158.078 247.861 158.078C246.956 158.078 246.214 158.462 245.635 159.23C245.055 159.999 244.766 160.969 244.766 162.141V168H243.799V157.385H244.619L244.717 159.299H244.785C245.221 158.518 245.687 157.971 246.182 157.658C246.676 157.339 247.275 157.18 247.979 157.18ZM252.676 164.318V163.957C252.676 163.156 252.796 162.502 253.037 161.994C253.285 161.486 253.737 160.943 254.395 160.363L255.283 159.592C255.752 159.195 256.087 158.801 256.289 158.41C256.491 158.02 256.592 157.57 256.592 157.062C256.592 156.236 256.318 155.578 255.771 155.09C255.231 154.602 254.518 154.357 253.633 154.357C253.118 154.357 252.637 154.416 252.188 154.533C251.738 154.644 251.253 154.826 250.732 155.08L250.371 154.299C251.087 153.986 251.686 153.778 252.168 153.674C252.656 153.57 253.158 153.518 253.672 153.518C254.863 153.518 255.801 153.84 256.484 154.484C257.168 155.122 257.51 156.001 257.51 157.121C257.51 157.564 257.451 157.951 257.334 158.283C257.217 158.615 257.051 158.924 256.836 159.211C256.628 159.491 256.374 159.764 256.074 160.031C255.775 160.292 255.443 160.575 255.078 160.881C254.661 161.232 254.339 161.555 254.111 161.848C253.89 162.134 253.727 162.437 253.623 162.756C253.525 163.075 253.477 163.55 253.477 164.182V164.318H252.676ZM252.354 167.238C252.354 166.6 252.614 166.281 253.135 166.281C253.669 166.281 253.936 166.6 253.936 167.238C253.936 167.876 253.669 168.195 253.135 168.195C252.614 168.195 252.354 167.876 252.354 167.238Z" fill="#0F0F0F"/>
<rect y="58" width="375" height="8" fill="#D8D8D8"/>
<path fill-rule="evenodd" clip-rule="evenodd" d="M-310 58H-117.5H70.1649H71C73.2091 58 75 59.7909 75 62C75 64.2091 73.2091 66 71 66H-310V58Z" fill="url(#paint2_linear_1_1947)"/>
<g filter="url(#filter2_dd_1_1947)">
<rect width="375" height="58" fill="white"/>
</g>
<path d="M351.612 22L338 35.6118" stroke="#3A4850" stroke-width="2" stroke-linecap="round"/>
<path d="M338.177 22L351.789 35.6118" stroke="#3A4850" stroke-width="2" stroke-linecap="round"/>
<path d="M177.569 36H169.123V34.7432L172.507 31.3418C173.538 30.2988 174.218 29.5547 174.546 29.1094C174.874 28.6641 175.12 28.2305 175.284 27.8086C175.448 27.3867 175.53 26.9326 175.53 26.4463C175.53 25.7607 175.322 25.2188 174.906 24.8203C174.49 24.416 173.913 24.2139 173.175 24.2139C172.642 24.2139 172.135 24.3018 171.654 24.4775C171.18 24.6533 170.649 24.9727 170.063 25.4355L169.29 24.4424C170.474 23.458 171.763 22.9658 173.157 22.9658C174.364 22.9658 175.311 23.2764 175.996 23.8975C176.682 24.5127 177.024 25.3418 177.024 26.3848C177.024 27.1992 176.796 28.0049 176.339 28.8018C175.882 29.5986 175.026 30.6064 173.772 31.8252L170.96 34.5762V34.6465H177.569V36ZM184.97 23.1504L180.18 36H178.721L183.511 23.1504H184.97ZM191.438 36H190.015V26.8418C190.015 26.0801 190.038 25.3594 190.085 24.6797C189.962 24.8027 189.824 24.9316 189.672 25.0664C189.52 25.2012 188.822 25.7725 187.58 26.7803L186.807 25.7783L190.208 23.1504H191.438V36ZM204.851 29.5576C204.851 31.7783 204.499 33.4365 203.796 34.5322C203.099 35.6279 202.029 36.1758 200.588 36.1758C199.205 36.1758 198.153 35.6162 197.433 34.4971C196.712 33.3721 196.352 31.7256 196.352 29.5576C196.352 27.3193 196.7 25.6582 197.397 24.5742C198.095 23.4902 199.158 22.9482 200.588 22.9482C201.982 22.9482 203.04 23.5137 203.761 24.6445C204.487 25.7754 204.851 27.4131 204.851 29.5576ZM197.828 29.5576C197.828 31.4268 198.048 32.7891 198.487 33.6445C198.927 34.4941 199.627 34.9189 200.588 34.9189C201.561 34.9189 202.264 34.4883 202.697 33.627C203.137 32.7598 203.356 31.4033 203.356 29.5576C203.356 27.7119 203.137 26.3613 202.697 25.5059C202.264 24.6445 201.561 24.2139 200.588 24.2139C199.627 24.2139 198.927 24.6387 198.487 25.4883C198.048 26.332 197.828 27.6885 197.828 29.5576Z" fill="#3C5060"/>
<path d="M31.5 22L23 29L31.5 36" stroke="#3A4850" stroke-width="2" stroke-linecap="round" stroke-linejoin="round"/>
</g>
<defs>
<filter id="filter0_d_1_1947" x="40.5" y="352.5" width="295" height="159" filterUnits="userSpaceOnUse" color-interpolation-filters="sRGB">
<feFlood flood-opacity="0" result="BackgroundImageFix"/>
<feColorMatrix in="SourceAlpha" type="matrix" values="0 0 0 0 0 0 0 0 0 0 0 0 0 0 0 0 0 0 127 0" result="hardAlpha"/>
<feOffset dy="4"/>
<feGaussianBlur stdDeviation="5"/>
<feColorMatrix type="matrix" values="0 0 0 0 0 0 0 0 0 0 0 0 0 0 0 0 0 0 0.06 0"/>
<feBlend mode="normal" in2="BackgroundImageFix" result="effect1_dropShadow_1_1947"/>
<feBlend mode="normal" in="SourceGraphic" in2="effect1_dropShadow_1_1947" result="shape"/>
</filter>
<filter id="filter1_d_1_1947" x="40.5" y="200.5" width="295" height="159" filterUnits="userSpaceOnUse" color-interpolation-filters="sRGB">
<feFlood flood-opacity="0" result="BackgroundImageFix"/>
<feColorMatrix in="SourceAlpha" type="matrix" values="0 0 0 0 0 0 0 0 0 0 0 0 0 0 0 0 0 0 127 0" result="hardAlpha"/>
<feOffset dy="4"/>
<feGaussianBlur stdDeviation="5"/>
<feColorMatrix type="matrix" values="0 0 0 0 0 0 0 0 0 0 0 0 0 0 0 0 0 0 0.06 0"/>
<feBlend mode="normal" in2="BackgroundImageFix" result="effect1_dropShadow_1_1947"/>
<feBlend mode="normal" in="SourceGraphic" in2="effect1_dropShadow_1_1947" result="shape"/>
</filter>
<filter id="filter2_dd_1_1947" x="-13" y="-7" width="401" height="84" filterUnits="userSpaceOnUse" color-interpolation-filters="sRGB">
<feFlood flood-opacity="0" result="BackgroundImageFix"/>
<feColorMatrix in="SourceAlpha" type="matrix" values="0 0 0 0 0 0 0 0 0 0 0 0 0 0 0 0 0 0 127 0" result="hardAlpha"/>
<feOffset dy="6"/>
<feGaussianBlur stdDeviation="6.5"/>
<feColorMatrix type="matrix" values="0 0 0 0 0.690196 0 0 0 0 0.741176 0 0 0 0 0.772549 0 0 0 0.14 0"/>
<feBlend mode="normal" in2="BackgroundImageFix" result="effect1_dropShadow_1_1947"/>
<feColorMatrix in="SourceAlpha" type="matrix" values="0 0 0 0 0 0 0 0 0 0 0 0 0 0 0 0 0 0 127 0" result="hardAlpha"/>
<feOffset dy="1"/>
<feGaussianBlur stdDeviation="1"/>
<feColorMatrix type="matrix" values="0 0 0 0 0.227451 0 0 0 0 0.282353 0 0 0 0 0.313726 0 0 0 0.07 0"/>
<feBlend mode="normal" in2="effect1_dropShadow_1_1947" result="effect2_dropShadow_1_1947"/>
<feBlend mode="normal" in="SourceGraphic" in2="effect2_dropShadow_1_1947" result="shape"/>
</filter>
<linearGradient id="paint0_linear_1_1947" x1="193.015" y1="401.214" x2="193.015" y2="417.922" gradientUnits="userSpaceOnUse">
<stop stop-color="#89959C" stop-opacity="0.628551"/>
<stop offset="1" stop-color="#3A4850" stop-opacity="0.821351"/>
</linearGradient>
<linearGradient id="paint1_linear_1_1947" x1="161.114" y1="401.214" x2="161.114" y2="417.922" gradientUnits="userSpaceOnUse">
<stop stop-color="#89959C" stop-opacity="0.628551"/>
<stop offset="1" stop-color="#3A4850" stop-opacity="0.884943"/>
</linearGradient>
<linearGradient id="paint2_linear_1_1947" x1="102.813" y1="61.1162" x2="101.631" y2="39.8935" gradientUnits="userSpaceOnUse">
<stop stop-color="#3797FA"/>
<stop offset="1" stop-color="#45C9FF"/>
</linearGradient>
<clipPath id="clip0_1_1947">
<rect width="375" height="638" fill="white"/>
</clipPath>
</defs>
</svg>
